<?xml version="1.0" encoding="UTF-8" standalone="no"?>
<!-- Created with Inkscape (http://www.inkscape.org/) -->

<svg
   width="39.980232mm"
   height="74.021027mm"
   viewBox="0 0 39.980232 74.021027"
   version="1.1"
   id="svg5"
   xml:space="preserve"
   xmlns="http://www.w3.org/2000/svg"
   xmlns:svg="http://www.w3.org/2000/svg"><defs
     id="defs2" /><g
     id="layer1"
     transform="translate(-15.346574,-8.4006393)"><path
       style="display:inline;fill:#ffffff;fill-opacity:1;stroke-width:0.0268021"
       d="m 51.306236,82.389072 c -0.33771,-0.30885 -0.34643,-0.481162 -0.6232,-0.726236 0.16369,0.842632 -1.03502,-0.304169 -0.5694,-0.26783 -0.0665,0.395923 0.14668,-0.04933 0.0699,-0.212166 0.0444,-0.342174 -0.36689,-1.486692 -0.0837,-1.21775 0.12731,0.701608 0.20035,0.08345 0.31584,0.440504 0.0611,0.24874 0.12508,0.20938 0.2926,0.01767 0.29636,-0.190475 0.068,-0.679435 0.0328,-0.735331 0.26687,-0.128478 -0.0126,-0.699732 -0.0497,-0.769648 0.0238,-0.566074 -0.34402,-0.757557 -0.087,-1.387272 0.052,-0.972031 -0.42011,-0.207587 -0.3308,-0.978941 -0.19545,-0.299535 -0.008,-0.716318 -0.152,-0.913144 -0.0203,-0.920439 -0.12681,-0.283213 -0.2108,-1.160472 -0.12839,-0.804704 -0.099,-0.774035 -0.0386,-1.544561 -0.0946,0.278217 -0.61882,-0.342693 -0.90352,-0.05361 -0.25705,-0.308919 -0.91911,-0.370265 -0.91141,0.231979 0.23232,0.01973 -0.0871,1.064932 -0.1609,1.469885 -0.0946,0.459558 -0.42917,0.86887 -0.4961,1.218852 0.505,-0.435589 -0.37079,0.463068 -0.0322,0.241895 0.26966,-0.242867 -0.12675,0.914635 -0.194,1.273106 -0.0272,0.395397 -0.51386,0.984178 -0.4628,1.133913 0.29663,-0.259853 -0.55312,1.013685 0.0853,0.44287 0.098,-0.334566 0.62305,-1.193432 0.32243,-0.388841 -0.27474,0.895562 -0.39076,1.924233 -0.70565,2.847639 -0.37407,-0.0054 -0.28104,0.810773 -0.78025,0.428142 -0.0468,-0.790086 -0.22444,0.725899 -0.4158,0.23357 -0.24152,0.205921 -0.12494,-0.363914 -0.50089,0.0108 -1.10692,0.25339 -1.46233,-1.602104 -1.08893,-2.065072 -0.0791,0.757851 0.0112,0.697172 0.0889,0.975396 0.11199,0.315602 0.51993,0.70057 0.30816,0.01841 0.0168,-0.747077 0.0873,-1.562631 0.41558,-2.165521 -0.24771,-0.407129 0.21698,-1.08867 0.26092,-1.404234 0.24751,-0.156378 0.63229,-0.77126 0.19379,-0.37533 -0.32976,0.507471 0.15372,-0.715356 0.30508,-0.96148 -0.0316,-0.420529 0.3547,-0.795658 0.15155,-0.947191 0.31849,-0.530193 0.20254,-0.261922 0.45524,-0.563856 -0.48288,0.115464 -0.013,-0.276268 0.0919,-0.532791 0.17063,-0.603118 -0.0944,0.200241 -0.34106,0.110617 0.10065,0.169609 -0.24628,1.190198 -0.32754,0.99233 0.18941,-0.30394 0.18911,-0.92291 0.23063,-0.993132 0.13976,-0.370627 0.21198,-0.466399 0.12627,-0.606255 0.12177,-0.666288 0.30431,-1.248635 0.46136,-1.778253 -0.2489,0.146252 -0.14065,-0.03568 0.007,-0.19107 -0.20601,-0.42307 -0.37533,-0.711148 0.0617,-0.650648 0.43655,-0.241791 0.63886,-1.115347 0.62844,-1.570329 -0.0876,0.352937 -0.35234,0.855701 -0.56323,0.88535 0.0709,-0.362631 0.33868,-0.155243 0.16131,-0.45079 0.41995,-0.15435 -0.003,-0.200855 0.16078,-0.43369 0.14551,-0.150135 0.1329,-0.06976 0.13869,-0.481051 0.017,0.457985 0.3446,-0.516564 0.16763,-0.44451 0.28448,-0.373243 0.02,-0.632708 0.43521,-0.70907 0.17253,-0.572773 0.58762,-1.416476 0.4786,-1.957965 -0.24499,0.07422 -0.20229,0.717613 -0.2362,0.201857 0.0129,-0.410532 0.44134,-1.110998 0.2271,-1.247116 0.3434,-0.407015 0.18736,-1.125164 0.3548,-1.486443 0.25844,-0.757437 0.41925,-1.808153 0.4382,-2.560717 -0.29115,0.172003 0.23351,-0.648707 -0.073,-0.516761 0.27528,-0.436769 0.25914,-1.190524 -0.12614,-1.573825 0.3244,-0.139992 0.61823,-0.374728 1.06936,0.0067 0.75124,0.823727 0.74039,2.082856 1.0441,3.129249 0.0908,0.888862 -0.0722,1.743036 -0.0827,2.377744 0.0125,0.377844 0.0708,0.37062 -0.031,0.741 0.33913,-0.127234 0.141,0.621233 0.2742,1.022039 0.0273,0.257159 -0.16463,0.959756 -0.0372,0.866685 0.10432,-0.262968 -0.0315,1.257567 0.0858,0.466295 0.1987,0.356143 0.0755,1.179977 0.31023,1.589053 -0.14872,0.431561 0.22329,0.721386 0.12286,1.285746 0.0832,0.546423 0.1705,0.747994 0.31103,1.280674 0.88244,-0.131022 1.95459,-0.131404 2.71259,-0.06105 0.24235,-0.0016 -0.57522,-0.460582 0.0825,-0.185126 0.7014,-0.121499 1.53946,0.609838 0.9646,1.042826 -0.006,0.436109 -0.36209,0.714936 -0.85396,0.671076 -0.19057,0.265822 -0.63343,-0.08092 -0.83691,0.06002 -0.17843,-0.138983 -0.22765,-0.564927 -0.43649,-0.142486 -0.28609,-0.484662 -0.40664,0.365639 0.27525,0.02558 0.0384,0.158222 -0.78439,0.265903 -0.65811,-0.158522 -0.14968,0.43914 -0.42573,0.271204 -0.86942,0.41245 -0.40937,-0.105639 -0.2988,0.813663 -0.1602,1.088345 0.44312,-0.424143 -0.10993,1.158101 0.1939,0.615298 0.21433,-0.338173 -0.0942,1.330804 0.1527,0.524907 0.064,-0.554429 -0.0879,0.509508 0.17844,0.405931 0.22709,0.298019 -0.17549,1.51718 0.14776,1.158707 0.11494,-0.381075 0.1639,0.73673 0.27191,0.940427 0.0446,0.589586 -0.117,0.610329 -0.2493,1.169955 -0.21107,0.188082 -0.16464,-0.752746 -0.157,-0.917729 -0.0203,-0.541274 -0.16221,-1.097156 -0.19781,-1.427119 -0.003,-1.227883 -0.14034,0.560435 -0.222,-0.232337 -0.0198,-0.433785 0.16903,-1.043256 -0.2818,-1.215642 0.15529,0.507102 -0.38379,0.813864 -0.20759,1.102575 -0.14892,-0.02716 0.14819,1.592298 -0.1615,1.399623 -0.0248,-0.520658 -0.24576,-1.198704 -0.35359,-1.338159 0.11382,0.208282 -0.0982,1.10659 0.1897,0.809361 -0.0604,0.610891 -0.19538,0.584275 0.0713,0.682908 0.20553,0.558856 0.19091,0.853048 0.2981,1.118991 0.29418,-0.596865 -0.0261,-1.35038 0.2414,-1.906002 0.0553,0.260191 0.17337,1.411249 0.206,0.622611 0.1588,-0.478309 0.0798,0.942197 0.1683,1.159942 0.0215,0.232956 0.0591,1.04453 0.1944,0.97927 0.15267,-0.476329 0.34019,-0.804142 0.4222,-1.311795 0.0377,0.257386 0.18701,1.472026 0.3406,1.131894 0.0591,-0.735244 0.17983,0.598126 0.19514,0.533437 0.20865,0.291843 0.0482,0.985079 0.0316,0.934678 0.35304,0.141317 -0.36775,0.495453 -0.3067,0.74145 0.44408,-0.335192 0.36339,0.145304 0.0169,0.08575 -0.41652,-0.284319 -0.52055,0.673615 -0.75693,0.14132 -0.22366,0.328416 -0.15584,0.392645 -0.5819,0.36849 -0.0188,0.09493 -0.0535,0.104829 -0.13333,0.05109 z m -6.57206,-2.311757 c 0.35286,-0.471949 0.36297,-1.356638 0.53974,-1.903672 0.0541,-0.471359 0.2439,-1.260338 0.15589,-1.360664 0.15135,-0.487313 0.39059,-0.453795 0.36751,-1.085801 -0.15584,-0.333411 -0.36159,0.666162 -0.45643,0.865152 -0.26149,0.270573 -0.0332,0.695354 -0.29036,1.152487 -0.0924,0.751817 -0.4201,1.870226 -0.35207,2.378218 l 0.0117,-0.0607 0.0241,0.01491 z m 1.16109,-4.929986 c 0.37111,-0.435261 0.41704,-1.27837 0.57688,-1.680895 0.0361,0.08228 0.46979,-0.731677 0.40694,-0.210761 -0.34882,0.65355 0.0217,0.508622 0.26592,0.07982 0.15598,-0.895332 0.0608,0.39066 0.30744,-0.588684 0.21552,-0.497499 -0.46806,-0.518014 -0.28084,-0.137275 -0.38687,0.318484 -0.16645,-0.819334 -0.37524,-0.172684 -0.19321,0.255522 -0.0261,0.958578 -0.41327,0.75571 0.24896,-0.557035 -0.27585,0.22617 -0.22993,0.60865 -0.11755,0.550034 -0.3955,1.152874 -0.42883,1.440886 -0.0272,0.3457 0.0695,-0.157731 0.17093,-0.09477 z m 3.42092,-3.796727 c 0.33418,-0.04749 0.14576,-0.614269 0.1056,-1.016577 -0.33709,0.695191 0.0688,-0.850739 -0.39931,-0.701743 0.38129,-0.227525 0.0582,-0.447897 0.003,-0.477656 -0.1011,0.480016 -0.17626,0.612656 -0.2171,1.278216 -0.0251,-0.225517 -0.29835,0.140932 -0.33665,0.600319 0.61707,-0.06304 0.48992,0.05317 0.39973,0.25348 0.14843,0.06635 0.3658,0.03395 0.44453,0.06396 z m 1.55931,-0.05951 c -0.12876,-1.127371 -0.39072,-2.407764 -0.48051,-3.623864 -0.27213,-0.307621 0.39521,-0.750311 -0.003,-0.797375 -0.34849,-0.156633 -0.16522,0.596689 -0.2153,0.976845 0.19201,0.19293 0.23127,0.968519 0.1859,1.430586 0.17425,0.297401 -0.43044,1.514479 -0.0664,1.339341 -0.0162,-1.047013 0.34551,-0.425118 0.2487,0.193627 -0.12872,0.408815 -0.0241,0.686835 0.33104,0.48084 z m -31.53038,10.818073 c -0.980851,0.04808 -2.152182,-0.573994 -2.393231,-1.603671 -1.04101,-2.059383 -0.995049,-4.518374 -1.059489,-6.774486 -0.157557,-0.970228 -0.517287,-1.830213 -0.498046,-2.866794 -0.08852,-0.745359 -0.03344,-1.639589 0.0015,-2.151791 0.320098,-2.321757 0.551905,-4.665646 0.526432,-6.890185 0.128232,-0.688539 0.305682,-1.494558 0.209835,-2.168928 -0.06536,-0.458823 -0.199373,-0.964375 0.458502,-0.567903 0.324497,0.587132 -0.43037,1.117498 -0.063,1.801065 -0.116962,0.574641 -0.215231,1.215043 -0.1246,1.739121 0.05539,0.480287 -0.01907,0.778647 0.0132,1.248962 -0.156985,0.75288 0.0055,1.32851 0.01898,2.167657 -0.09332,0.537128 0.01776,1.463919 -0.112448,2.195229 0.01003,0.815777 0.06827,1.772842 0.210268,2.444856 -0.02114,0.111361 0.276823,0.750533 0.41781,1.159081 0.0395,0.678666 0.292664,1.175143 0.31951,1.68752 0.145741,0.336532 0.25418,0.807863 0.27302,1.223888 0.09667,0.686817 0.165156,1.564458 0.421082,2.205475 -0.03571,0.29122 0.08252,0.855895 0.13183,0.927876 0.131119,0.858951 0.218282,1.869919 1.06954,2.116081 -0.821628,-0.137079 0.173566,0.426845 0.415658,0.17483 0.429858,-0.650934 0.696081,-1.27961 1.15335,-1.828703 0.199331,-0.376425 0.39949,-0.899202 0.546402,-1.233412 0.143956,0.201184 0.459953,-0.845567 0.510407,-1.195674 0.398438,-1.331837 0.536498,-2.768767 0.702128,-4.137896 0.31977,-0.126597 0.064,-1.133708 0.34136,-1.408547 -0.12892,-0.712067 -10e-4,-1.528491 0.0852,-2.329684 0.28279,0.273168 -0.10236,-0.590642 0.14644,-0.55768 -0.13706,-0.498805 0.39044,-0.707317 0.12271,-1.426342 0.0495,-0.517247 -0.0766,-0.936471 -0.0173,-1.219481 -0.25312,-0.308497 0.0135,-1.864341 -0.0416,-0.884484 0.51123,-0.811508 0.0161,-0.620796 -2.2e-4,-1.152117 0.0658,-0.06723 0.18714,-0.218919 0.16416,0.14703 0.22817,0.381898 0.0289,-0.752082 0.1333,-0.68347 0.0443,-0.482087 -0.16741,-0.667374 0.0558,-0.70303 -0.15294,-0.447558 -0.24746,-1.473437 -0.17887,-1.628762 0.18687,0.0067 -0.16481,-0.784705 0.10025,-0.913883 -0.32203,0.125056 -0.21539,0.895526 -0.3433,0.287002 0.0429,-0.278495 0.77971,-0.598242 0.203,-0.80794 0.27763,-0.02625 0.54274,-0.428087 0.71025,-0.200092 0.17806,-0.03456 0.318,-0.03719 0.54946,0.2412 0.0323,-0.08416 0.0464,0.478175 0.31649,0.655047 0.30087,0.505925 -0.12888,0.954403 -0.16019,1.439649 -0.26564,-0.692575 0.0857,0.609783 -0.0746,0.799202 -0.0913,0.221445 0.009,0.782746 -0.04,1.387227 0.0593,0.366677 0.0577,0.338719 0.0957,0.900188 0.13098,0.518283 -0.0138,1.353069 -0.24455,1.708484 0.1011,0.300286 -0.1558,0.352891 -0.16997,0.725471 -0.0918,0.512144 0.11402,-0.1529 0.0767,0.398506 -0.15368,0.692877 0.15245,1.438959 0.0891,2.15966 -0.002,0.366877 -0.0122,0.76692 0.0721,0.798604 0.0469,0.258968 -0.33926,0.370138 -0.0386,0.713607 -0.0479,0.453284 -0.064,1.324816 -0.16723,1.310192 0.0276,0.546815 -0.15775,1.268864 -0.21407,1.67832 0.23382,-0.06515 -0.15222,1.117133 -0.13141,1.476354 0.13891,0.896481 -0.005,-0.03187 -0.1287,0.450307 0.13782,0.598225 -0.20594,0.532693 -0.24774,1.249396 -0.16614,-0.811713 -0.36162,1.001522 -0.42991,0.256453 -0.14358,0.527978 -0.59931,1.351131 -0.61002,1.834512 -0.33739,0.68879 -0.42214,1.328172 -0.812892,1.831605 -0.139452,0.403148 -0.469986,1.264881 -0.82471,1.210001 0.008,-0.198813 -0.290228,0.551743 -0.653441,0.450748 -0.232729,-0.02024 -0.608989,0.22991 -0.881284,0.134549 z m 14.39595,-0.08271 c -0.0886,-0.06873 -1.29082,-0.11959 -0.85552,-0.649774 0.0248,0.464885 0.55906,-0.63657 0.0775,-0.2145 -0.0199,-0.498924 -0.49987,-0.474515 -0.3669,-0.845222 -0.3619,-1.160967 -0.80556,-2.205224 -1.23562,-3.309079 -0.35844,0.439736 0.0189,-0.646258 -0.42935,-0.967479 0.23148,0.844319 -0.19251,0.414772 -0.33817,-0.177339 -0.59272,-1.385657 -1.38151,-2.682321 -2.32386,-3.829365 -0.68489,-0.756734 -0.56357,0.05263 -0.36633,0.04271 -0.36312,0.09155 -0.12113,1.098297 -0.13704,1.535296 0.0318,-0.206005 0.0191,0.661283 0.15127,0.924139 0.0285,0.55358 -0.16449,0.777082 -0.0638,1.078381 0.0205,0.775129 -0.0604,1.471122 0.0788,2.138334 0.0121,0.238542 0.30892,0.405477 0.16288,0.70271 -0.0941,1.001333 0.35438,2.322359 -0.26113,2.974763 -0.0223,0.207333 -0.46127,-0.05483 -0.47691,0.464019 -0.18182,-0.08525 -0.46226,0.245358 -0.81427,-0.14214 -0.30698,-0.271806 -1.11623,-0.280916 -0.84127,-0.930816 -0.0332,-0.960975 0.24818,-1.861445 0.35253,-2.86169 0.1278,-0.492847 0.18545,-1.518941 0.1186,-1.728746 -0.0972,-0.455077 -0.0726,-0.562268 0.0189,-0.68577 -0.0221,-0.71527 -0.30479,-1.269247 -0.0714,-1.942749 -0.17034,-0.464435 0.26381,-1.265375 0.0122,-1.537658 0.0802,-0.495147 0.45219,-1.571105 -0.16085,-1.676945 -0.31188,-0.604399 0.20953,0.205336 0.35317,-0.14946 -0.0767,-0.363265 -0.1148,-0.356955 -0.0719,-0.85561 0.0547,-1.094964 0.51794,-2.074645 0.56306,-3.234027 -0.0459,-0.33648 0.0442,-0.897551 0.0822,-1.417567 0.26834,-1.330865 0.0355,-2.74272 0.0742,-4.155139 0.14878,-0.186166 -0.362,-1.215509 0.18503,-1.487144 0.28542,-0.961657 1.97704,-1.127756 2.66055,-0.353532 0.64053,0.476361 1.28933,0.972489 1.68912,1.481282 0.0226,-0.04131 0.26942,0.296274 0.45605,0.38529 0.5729,0.764907 0.72357,1.402361 1.17222,2.207982 -0.22871,0.532275 0.14899,-0.112376 0.13213,0.45848 0.20686,0.286709 0.4674,1.149853 0.39396,1.544484 0.20184,0.0033 0.10824,1.084283 0.0294,1.152485 0.25821,-0.177408 -0.11325,0.826272 -0.1091,0.920801 0.27984,-0.266014 -0.26333,0.571918 -0.18722,0.50794 0.0334,0.02538 -0.25086,0.560816 -0.37363,0.60931 -0.0974,0.580282 -0.77051,0.970918 -0.91085,1.218487 -0.36259,0.38114 -0.23034,0.05889 -0.62832,0.44538 0.0996,0.109551 -0.60149,0.236443 -0.78435,0.4524 -0.24233,0.09067 -0.44228,0.675183 -0.84795,0.473965 -0.85847,0.410416 0.40957,0.01932 -0.0957,0.35848 0.33479,0.322932 0.43311,0.727638 0.63415,0.590187 0.15277,0.376468 0.53704,0.316858 0.61511,0.83277 0.21464,-0.655394 0.062,0.41329 0.27572,0.446544 0.15797,0.0931 0.28477,0.646779 0.21442,0.535427 0.21001,0.221236 0.38591,0.547044 0.62768,0.977167 0.38826,0.422535 0.30545,0.781794 0.65735,0.891323 0.0351,0.308288 0.0173,0.619815 0.041,0.655615 0.25016,-0.471365 0.27206,0.755002 0.28341,0.135034 0.34979,-0.0088 0.0103,0.972231 0.25839,0.275124 0.34663,0.544781 0.53492,1.365119 0.59779,2.033521 0.25218,0.03094 -0.1388,0.837508 0.0971,1.202421 0.18395,0.10143 0.1384,0.535408 0.13879,-0.371473 0.28538,-0.223659 0.33611,0.60635 0.55716,0.832505 0.14832,0.330192 0.28895,0.920144 -0.25341,1.00834 -0.21627,-0.05156 0.065,0.866689 -0.36277,0.739735 -0.23709,-0.0491 -0.16477,0.128202 -0.39419,0.290392 z m -5.10356,-11.861402 c 0.84325,-0.313273 0.4791,-0.42819 1.08634,-0.665726 0.2839,-0.240159 1.13378,-0.620484 1.12728,-0.987746 -0.3286,0.0067 0.75822,-0.58673 0.55803,-1.001168 0.3631,-0.391347 0.39393,-0.385617 0.69006,-0.889304 0.18653,-0.536502 0.42369,-1.344782 0.33484,-1.938033 -0.10092,0.321354 -0.32195,1.024662 -0.21971,0.07221 -0.20543,-0.727341 -0.42633,-1.865512 -0.93582,-2.604651 -0.57277,-1.340224 -1.67527,-2.298769 -2.93073,-2.979668 -0.22508,0.34593 -0.77545,0.648192 -0.50523,1.33288 -0.0487,1.168442 0.62623,2.233054 0.22775,3.365752 -0.15175,0.417527 0.007,1.247079 -0.1225,1.875244 0.005,0.663733 -0.0593,1.047786 -0.0517,1.55937 0.27007,0.683239 -0.0218,1.653136 0.17817,2.474269 0.0672,0.103653 0.16361,0.171475 0.33638,-0.0073 -0.18951,0.336047 0.0506,0.418587 0.22685,0.393864 z m 12.3003,11.654937 c -0.40096,-0.1811 -1.22501,0.0403 -1.65111,-0.31714 -0.4559,-0.202264 -0.9165,-0.371751 -1.17375,-0.76951 -0.19482,0.106525 -0.252,-0.0071 -0.67006,-0.05725 0.0897,-0.241398 -0.31657,0.08456 -0.56291,-0.291426 -0.26053,0.0089 -0.6188,-0.402255 -0.65162,-0.451488 -0.43865,0.0934 0.25338,-0.246141 0.28981,-0.323404 0.55301,-0.0279 -0.26191,-0.683421 0.29294,-0.428181 -0.50999,-0.48844 0.62859,0.312686 -0.0517,-0.381552 0.0615,-0.09192 0.19273,-0.215277 0.52457,-0.541854 0.24529,-0.848595 0.019,0.291856 0.56088,0.169874 0.19166,0.126242 0.37154,0.372711 1e-5,0.30617 0.20881,0.295001 0.27275,0.05227 0.61349,0.17597 0.40028,-0.01852 0.38481,0.177201 0.34128,0.21536 0.58975,0.358941 0.49939,-0.535085 0.92152,-0.28241 0.58965,0.117417 0.55803,-0.172113 0.7905,-0.3078 0.20141,0.143882 0.42618,-0.789473 0.26803,-0.429843 0.15865,0.692791 0.33085,-0.634351 0.4154,-0.897752 0.0459,-1.460851 -0.41786,-2.950027 -1.42147,-3.89883 -0.0148,0.245721 -0.67848,-0.818888 -0.81502,-0.958281 -0.77961,-1.136893 -1.71795,-2.031525 -2.10758,-3.348203 -0.20422,-0.472206 -0.29759,-1.186584 -0.33228,-1.644061 -0.27676,-0.120261 -0.31605,-1.099975 -0.0409,-1.282798 -0.0976,0.04399 -0.005,1.34236 0.0805,0.894657 0.0377,-0.381972 0.0475,-1.064307 0.0747,-1.316286 0.3586,-0.0098 0.21469,-0.942538 0.38377,-1.310311 -0.21498,0.341636 -0.2536,0.92346 -0.43465,1.215377 -0.27084,0.261559 0.15953,-0.550984 0.18383,-0.759745 -0.0328,-0.545319 0.29362,-1.08496 0.43834,-1.249555 -0.14372,-0.155519 0.47277,-0.68303 0.1046,-0.425574 0.14769,-0.253994 0.0849,-0.387567 0.28397,-0.5114 0.19368,0.01024 0.68253,-0.0081 0.87502,-0.394773 0.37689,-0.872679 -0.0657,0.110721 0.40553,-0.493712 -0.0432,-0.568427 0.49321,-0.774444 0.87895,-1.226835 -0.002,-0.22367 0.54324,-0.530045 -0.14653,-0.29203 0.16792,-0.208117 0.38593,-0.281636 0.4368,-0.31107 0.23688,-0.184715 -0.006,0.08897 0.12801,0.11718 0.0682,-0.225296 0.78979,-0.495454 0.37796,-0.489509 -0.17464,0.262641 -0.66845,0.244919 -0.17153,0.02218 0.0841,-0.04916 0.36692,-0.501791 0.60365,-0.51208 0.20181,-0.115196 0.74227,-0.853828 0.76385,-0.705754 -0.26266,0.0779 0.36675,0.450146 0.41471,0.43486 0.29613,0.68101 1.51286,1.466786 0.47987,2.026987 -0.71463,-0.380323 -1.43546,0.561292 -1.98011,0.88852 -0.33719,0.455947 -0.72604,0.779265 -0.91697,1.152424 -0.71284,0.564953 -1.56149,1.196942 -1.57264,2.303101 -0.51678,0.90359 -0.53062,2.106022 0.13093,2.971778 0.27012,0.67512 1.02506,1.405404 1.29991,1.934879 -0.25581,-0.460419 -0.71446,-0.647431 -0.21433,-0.05453 0.45573,0.725214 1.20596,1.296036 1.70398,2.009044 0.60837,0.49265 1.0743,1.251916 1.472,1.84419 0.4434,0.72568 0.97776,1.670552 0.44124,2.380136 -0.0144,0.503134 0.46887,-0.391888 0.26309,0.32066 0.10353,-0.141969 0.20999,-0.115562 0.13505,0.670076 -0.0109,0.502199 -0.29041,1.095349 -0.22169,1.487518 0.20693,-0.260928 -0.21797,0.698046 -0.35644,0.835666 -0.23591,0.417664 -0.33781,0.983685 -0.60959,1.228101 0.68619,-0.620878 0.3018,0.309939 -0.0811,0.517827 -0.42182,-0.06973 -0.44606,0.54994 -0.84544,0.52947 0.009,0.104832 -0.46375,0.142923 -0.34929,0.01294 z M 24.936956,56.977412 c -0.91527,-0.07675 -2.00976,0.06123 -2.8523,-0.47363 -0.696334,-0.11684 -1.266727,-0.700378 -1.909261,-0.705535 0.804706,0.168897 -0.336237,-0.48098 -0.175859,-0.557586 -0.311526,-0.237571 -0.637613,-0.324514 -0.88938,-0.71688 0.153383,-0.228705 0.888745,0.29672 0.471221,-0.09952 -0.54046,0.14686 0.203398,-0.503374 0.0065,-0.28441 0.584893,0.303373 -0.302177,-0.633955 0.06183,-0.27532 0.291417,0.130312 0.62579,-0.218446 0.85393,0.16794 0.359411,-0.561473 -0.253832,-0.332803 -0.57605,-0.404152 -0.159908,-0.07489 -0.638276,-0.264388 -0.794667,-0.31319 -0.248979,-0.01293 -0.296293,-0.189061 -0.34447,0.18762 0.716944,0.138003 -0.07722,0.151066 -0.34844,0.08483 0.476332,-0.0861 -0.201929,-0.226012 -0.165614,-0.54977 -0.151034,-0.151503 -0.477122,0.0027 -0.60102,-0.437717 -0.323168,0.225931 -0.01786,-0.966581 0.12359,-0.448831 0.306223,-0.273688 -0.860517,-0.502869 -0.0319,-0.666994 -0.04753,-0.217719 -0.208182,-0.597182 -0.53552,-0.522477 0.182187,-0.336471 -0.221913,-0.832356 -0.26476,-0.433905 0.13293,-0.0613 -0.09667,-0.597242 0.05765,-0.446956 0.07529,-0.456232 -0.127539,-0.673673 -0.08227,-1.075973 0.05563,-0.753761 0.01478,-1.581599 0.13757,-2.494399 0.130872,-0.926954 0.321389,-2.26465 0.3907,-3.038577 -0.0035,-0.408367 0.0092,-0.817044 1.3e-4,-1.427122 0.01926,-1.184736 0.450731,-2.283857 0.645358,-3.434206 -0.122425,-0.06602 0.294901,-0.684576 0.324834,-1.261311 0.278019,-1.61003 0.571045,-3.088825 1.154244,-4.648222 0.409169,-1.48772 1.007548,-2.887608 1.541191,-4.227894 0.117498,-0.567636 0.393559,-0.98576 0.61898,-1.625232 0.526653,-0.363917 0.510453,-1.268044 0.909453,-1.673233 0.34426,-0.28186 0.22738,-0.257168 0.34125,-0.64514 0.21926,-0.249444 0.45525,-0.784768 0.66321,-1.071657 0.23573,-0.630912 0.93602,-1.118428 1.23585,-1.577368 0.28118,0.262632 0.48515,-0.371963 0.78078,-0.36505 0.42096,-0.02834 0.4931,-0.137727 0.88338,-0.04327 0.17722,-0.235233 1.03686,-0.161558 0.89478,0.07161 -0.29656,-0.155146 -0.11239,0.429306 0.41299,0.08733 -0.15182,-0.386483 0.33885,0.270121 0.19608,-0.16722 0.19181,-0.143747 0.35488,0.522868 0.74854,0.13803 0.47743,0.283106 0.96312,-0.0322 1.32774,0.30134 0.57048,0.263454 0.49723,0.363495 0.76976,0.29524 0.51164,0.157522 1.09623,0.282244 1.3836,0.57347 0.44074,-0.05917 0.89331,0.388083 1.33678,0.51586 0.3194,0.162097 0.90666,0.604543 1.07208,0.4353 0.41124,0.119995 0.33149,0.01956 0.38117,0.3088 0.30451,0.271349 0.79201,0.07485 0.77192,0.25654 0.4134,-0.02817 0.87423,0.365904 1.20554,0.52338 0.66408,0.333055 1.31664,0.80464 1.97808,1.147392 0.24872,0.09663 0.7448,0.585181 1.16068,0.683106 0.10831,0.03791 0.5304,0.384547 0.78788,0.57566 0.72894,0.11853 1.34442,1.069655 1.95673,1.439435 0.63984,0.32655 1.21845,1.294118 1.03867,2.004267 -0.1196,0.097 0.22417,0.939249 0.30809,0.62411 0.14496,0.225379 0.12603,0.200337 0.30153,0.47344 0.38643,0.513094 0.58906,1.046005 1.00284,1.396689 0.26777,0.466398 0.63072,0.987112 0.89284,1.250118 0.15282,0.707704 1.02186,0.808296 0.89395,1.608142 0.25113,0.406681 0.42535,0.605039 0.54795,1.00508 -0.20572,0.184141 0.012,0.408178 0.1362,0.62886 0.0724,0.363874 -0.44818,0.342895 -0.2338,0.51652 -0.10204,0.414428 0.58085,0.504596 0.28504,1.088392 -0.33417,0.02709 -0.51916,0.173305 -0.82589,0.11139 -0.0253,0.220307 0.0966,0.912741 0.4843,0.603038 0.37605,0.582106 -0.46706,0.471402 -0.63594,0.692744 -0.0905,0.403691 -0.44737,0.43151 -0.45562,0.16495 -0.33512,0.304578 -0.88822,0.193283 -1.23893,0.5153 -0.0421,-0.04162 -0.12939,-0.472876 -0.3491,-0.09018 0.28856,-0.165204 -0.0104,0.14359 -0.23453,0.10672 -0.59923,0.133171 -1.24427,-0.103586 -1.95734,0.01796 -1.17992,-0.06775 -2.32641,-0.2283 -3.42573,0.02475 -0.3317,0.04926 -0.98606,0.17033 -0.4058,0.33679 0.23591,-0.176838 0.61512,0.190446 0.85075,0.01207 0.65695,-0.109672 1.05661,-0.04945 1.66899,-0.26018 0.35289,0.266874 0.92415,-0.12399 1.37954,0.20694 0.63113,0.220098 1.03801,-0.0076 1.66266,0.278803 0.60809,-0.04786 1.22505,4.83e-4 1.76803,0.21249 0.28988,-0.13225 -0.54559,-0.795292 0.11028,-0.375133 0.25638,-0.113316 0.78649,0.165594 0.2727,0.382026 -1.58509,0.257114 -3.33523,0.319211 -4.91748,0.26974 -0.71153,0.08167 -1.41779,0.152203 -1.9722,0.29141 -0.20645,0.106967 -0.92482,-0.01949 -1.36199,0.2045 -0.59709,-0.04162 -1.56141,0.277432 -1.76351,0.59963 -0.48563,0.01496 -0.89351,0.593847 -1.26517,0.68883 -0.35081,0.429822 -0.90608,0.623578 -1.13569,0.983062 -0.67492,0.196484 -0.77469,1.494996 -1.24865,1.951232 -0.0703,0.589 -0.71293,1.113211 -0.5346,1.638097 0.28815,0.310109 0.0355,0.714489 -0.0556,1.098228 -0.0889,0.794502 -0.61201,1.406857 -0.53744,2.055645 -0.20884,0.22366 -0.10147,0.168145 -0.22004,0.57677 -0.29534,0.747315 -0.70663,1.360296 -1.13304,2.120051 -0.39275,0.294235 -0.76997,0.297615 -1.05832,0.814792 -0.0919,-0.06261 -0.2033,-0.09126 -0.35624,0.04048 -0.41453,0.23507 -0.38719,-0.137818 -0.72931,0.290011 -0.29521,0.116293 -0.33006,-0.0082 -0.56293,0.20561 -0.0246,0.123948 -0.16557,0.06473 -0.4021,0.20539 -0.44506,0.06718 -0.37079,0.322084 -0.76941,0.217158 -0.31305,0.154228 -0.64954,0.07415 -0.9593,0.32596 0.0973,0.150041 -0.66348,0.273594 -0.87318,0.207174 z m -2.0828,-4.807445 c 0.32639,-0.229374 0.85131,0.01382 1.42884,-0.28891 0.29607,-0.07115 0.88545,-0.348638 0.87122,-0.39991 0.22455,0.05943 1.00278,-0.440547 0.65654,-0.4751 0.56274,-0.513454 1.09341,-0.43359 1.53121,-1.103733 0.72068,-0.792875 1.40666,-1.791191 2.00908,-2.698697 0.0189,-0.2746 0.62242,-0.742067 0.1,-0.504928 0.23026,-0.576382 0.53298,-0.954175 0.67541,-1.442483 -0.39916,0.413136 -0.1645,-0.156127 0.31779,-0.38406 0.35863,-0.26982 0.70893,-0.774097 0.96799,-1.206258 0.46764,-0.352539 -0.24504,0.611025 -0.29474,0.80138 -0.0141,0.136258 -0.59108,0.881319 -0.1684,0.667503 -0.0946,0.247814 -0.55119,0.277992 -0.47902,0.70679 0.47723,-0.336245 0.84833,-0.84904 0.96854,-1.265335 0.28101,-0.230778 0.0862,-1.023148 0.41263,-1.459311 0.0128,-0.433003 -0.48484,0.43065 -0.84087,0.420415 -0.008,0.359019 -0.67966,0.732949 -0.15344,0.122775 0.1405,-0.447565 0.0148,-1.246695 0.53513,-1.588969 0.44881,-0.0467 0.40354,-1.120814 0.71683,-1.327369 0.40437,-0.126587 -0.17102,-0.634678 0.50314,-0.664 0.49384,-0.04183 0.69917,-0.485949 1.06306,-0.61291 0.47433,-0.31746 0.95747,-0.786757 1.38775,-0.845041 0.23178,-0.095 0.55197,-0.69259 0.90757,-0.587136 0.0461,-0.04393 0.6514,-0.04687 1.05702,-0.07712 0.21427,-0.336898 0.7535,0.224297 1.03562,-0.22966 0.29581,0.211432 0.56164,-0.311087 1.04015,-0.19261 0.34647,-0.127147 0.42163,0.07867 0.79334,-0.11001 0.40067,-0.0212 1.06032,0.07958 1.57877,-0.02568 0.31883,-0.310177 0.9451,-0.07816 1.00853,-0.24663 0.47825,0.160169 1.04343,0.106095 1.36123,-0.24118 0.0944,0.07046 0.48612,0.250815 0.16438,-0.345209 0.0504,-0.328065 -0.67462,-0.514692 -0.86481,-0.943425 -0.27955,-0.255833 -0.95932,-0.441832 -0.94687,-0.87866 0.14291,-0.387859 0.14393,0.329332 0.35179,0.104382 0.21369,0.426696 1.11096,0.489093 0.309,0.01401 -0.26925,0.09193 -0.40617,-0.406165 -0.78907,-0.480778 -0.0741,-0.516109 -0.78773,0.242779 -0.83037,-0.333418 -0.30969,-0.05736 -0.66159,-0.472051 -0.12238,-0.27252 0.12355,0.106046 0.69657,-0.03427 0.31642,-0.307156 -0.0348,-0.27183 -0.73864,-0.477607 -0.80029,-0.49857 -0.20862,-0.246234 -0.40876,-0.03952 -0.76432,-0.2318 -0.38233,-0.08931 -0.75763,-0.208003 -0.97473,-0.422271 -0.15532,0.03506 -0.56467,-0.225498 -0.98005,-0.33638 -0.51524,-0.196157 -0.96721,-0.247191 -1.27068,-0.45399 -0.70039,-0.07921 0.22465,-0.182767 -0.37467,-0.40312 -0.43701,-0.05453 -0.39355,0.0068 -0.70344,-0.16081 -0.58327,-0.138676 -1.51299,-0.46425 -1.96348,-0.834301 -0.35792,-0.09337 -0.7587,-0.220948 -0.75326,-0.42659 -0.29812,0.01455 -0.8552,-0.339933 -0.90691,-0.266634 -0.10232,-0.240187 -0.66088,-0.317337 -0.93048,-0.625546 0.48407,-0.09585 -0.20354,-0.296384 0.21815,-0.32333 0.16233,0.0371 1.29186,0.322004 0.71503,0.30105 -0.80095,-0.183513 -0.10879,0.257511 0.17318,0.19162 0.22512,0.08038 1.06365,0.444535 0.89553,-2e-5 0.4646,0.05912 0.74739,0.179873 1.1072,0.11374 -0.46974,-0.285739 0.0178,-0.370067 -0.85831,-0.59784 -0.29767,0.03879 -1.04145,-0.581717 -0.96271,-0.12652 0.73702,0.134452 -0.22376,0.09383 -0.34909,0.05445 -0.29041,-0.25197 -0.33603,0.268755 -0.51008,-0.229107 0.0727,0.361742 -0.74463,0.120178 -0.92289,-0.05409 0.61213,0.275613 0.558,-0.258922 0.11878,-0.15226 -0.12876,-0.393634 0.74758,0.240973 0.88445,-0.03384 -0.6782,-0.03689 0.075,-0.136916 0.36324,-0.1248 -0.42644,-0.15208 -0.60906,-0.448508 -0.97966,-0.28047 0.38107,0.37677 -1.11765,-0.157992 -0.3636,-0.09388 0.10014,0.01968 -0.50172,-0.226205 -0.28457,-0.41754 -0.81892,-0.165301 0.11208,-0.150698 -0.39717,-0.4444 -0.51687,-0.173319 -1.09929,-0.396324 -1.7102,-0.4408 -0.13891,-0.04012 -0.49966,-0.275796 -0.75919,-0.1479 -0.14981,-0.110112 -0.40338,-0.180572 -0.78354,-0.221842 -0.31878,0.547727 -0.14866,-0.119556 -0.70699,0.08875 -0.53846,-0.04952 -0.78514,0.326911 -0.69533,0.4863 -0.61111,0.161064 -0.0675,-0.590887 0.37016,-0.648116 0.67988,-0.299252 1.51748,0.06676 2.17169,0.03814 0.4595,0.109516 0.29684,-0.113076 0.44642,-0.08824 0.42276,0.04638 0.0727,-0.380711 0.36549,-0.24608 0.22034,0.136838 0.27597,0.05987 0.60387,0.12891 0.22721,0.179421 0.0882,-0.18914 0.3495,0.10063 0.36107,0.338349 0.82866,-0.245717 0.23205,-0.17719 -0.54586,-0.376664 0.96107,0.16251 0.50301,-0.16424 -0.23454,-0.02948 -0.3484,-0.151021 -0.54773,-0.32567 -0.2844,-0.110803 -0.2121,0.183691 -0.52326,-0.07206 -0.0901,-0.178313 -0.383,0.08895 -0.21801,-0.14547 -0.45734,-0.240135 -0.74366,-0.427004 -0.31024,-0.367096 0.36459,0.01534 0.96676,-0.0187 1.19633,0.15079 0.41905,0.07708 0.98713,0.210756 0.77245,0.764985 0.28343,0.27775 0.98061,-0.260929 1.3876,0.21434 0.42764,0.04477 1.03471,0.268289 1.47445,0.48302 0.3995,-0.02039 0.8059,0.54536 1.12196,0.439173 0.21152,0.02893 1.19409,0.436171 0.88783,0.33181 -0.80838,-0.09563 0.086,0.105132 0.24938,0.253011 0.36561,0.207909 0.73226,0.464396 1.15769,0.36565 -0.0933,-0.284919 0.17068,0.37164 -0.35257,0.08855 -0.48778,0.09079 -0.65053,-0.381776 -1.08491,-0.45979 0.008,0.325773 -0.0747,0.188213 -0.32245,-0.0376 0.16446,0.49926 -0.29456,0.200766 -0.58418,0.08324 -0.42333,-0.20028 -0.86442,-0.290226 -1.14017,-0.33418 0.40388,-0.206118 0.67338,-0.03719 0.87496,-0.03613 -0.27607,-0.07432 -0.59768,-0.407127 -0.99557,-0.358872 -0.0977,-0.116477 -0.84911,-0.198111 -1.21633,-0.30828 0.0982,0.208685 0.12498,0.463826 0.57665,0.455609 0.37664,0.447359 0.40868,-0.136268 0.74691,0.08148 -0.24069,0.01999 -0.11397,0.146997 -0.3752,0.13102 0.26593,0.203744 0.6285,0.472453 0.80403,0.39041 0.60197,0.590491 1.51647,0.530567 2.0371,1.05543 0.53511,0.135809 0.84603,0.577127 1.45019,0.604067 0.44781,0.190524 0.85585,0.570425 1.18574,0.510912 -0.7608,-0.292761 1.08122,-8.91e-4 0.11222,-0.31449 -0.0506,0.245704 -0.19155,-0.320829 -0.63575,-0.40846 -0.14763,0.05277 -0.52202,-0.360987 -0.18274,-0.14743 0.0779,-0.145714 0.50906,0.343621 0.83088,0.40332 0.67548,0.297375 0.24667,0.02282 -0.096,-0.17528 -0.14759,-0.2199 -0.38325,-0.210356 -0.76166,-0.51864 -0.78957,-0.296249 -0.18971,-0.294044 0.32829,-0.1263 0.32425,-0.03969 0.28349,0.257831 0.68168,0.09569 0.23921,0.469296 0.85832,0.412131 1.36835,0.64276 -0.0277,-0.496527 -0.80828,-0.608582 -1.1248,-0.94593 0.59385,-0.03501 1.06915,0.617734 1.51643,0.402052 0.39407,0.367642 0.88482,1.072163 1.36661,0.45008 -0.58366,-0.138075 -0.75023,-0.54026 -1.32371,-0.60476 -0.20225,-0.181635 -0.56813,-0.393758 -0.93642,-0.67019 -0.10217,-0.332434 -0.80083,-0.436107 -0.88468,-0.721824 -0.48732,-0.144152 -1.04198,-0.173679 -1.63343,-0.50721 -0.21115,-0.121788 -0.4682,-0.80622 -0.004,-0.53795 0.3836,-0.184015 -0.40515,-0.827746 -0.42573,-0.47672 -0.43407,-0.34886 -0.24055,0.11188 -0.25774,0.18187 0.15786,-0.252328 0.51163,0.311642 0.0203,0.09308 -0.549,-0.238425 -0.24966,0.168335 -0.58138,-0.17223 -0.16711,0.295436 -0.31032,-0.192808 -0.34691,-0.313748 -0.3548,-0.193901 -0.81943,-0.03691 -0.75025,0.0072 -0.88498,-0.269245 0.52421,0.550545 -0.18785,0.28885 -0.5003,-0.281753 -0.7656,-0.02679 -0.1337,0.150831 0.5237,0.173954 -0.20686,0.293674 -0.27562,0.05319 -0.31652,-0.10675 -0.57161,0.01984 -0.75658,-0.348741 0.3183,0.109721 0.70838,0.04318 0.16105,-0.26298 -0.21682,0.182372 -0.23795,-0.302329 -0.49635,-0.31732 -0.34671,0.0012 0.21237,0.08239 0.20364,0.286539 -0.0143,0.475469 -0.11035,0.186249 -0.45997,0.04412 0.33665,0.428552 -0.19153,-0.122403 -0.40854,-0.18387 -0.0508,-0.230001 -0.67969,-0.743142 -0.99633,-1.089537 -0.76767,-0.204511 -1.46794,-0.478167 -2.16467,-0.64548 -0.26793,-0.249848 -0.6757,-0.211353 -0.85075,-0.2868 -0.47232,0.0207 -1.38749,-0.126168 -1.90293,0.19971 0.34976,-0.04758 0.0947,0.508994 -0.27713,0.23213 -0.46036,-0.05729 -0.93273,0.372473 -0.99939,0.883633 0.34815,-0.246075 0.41511,0.364567 0.85201,0.426277 0.26321,-0.03879 0.85103,-0.169236 0.83621,0.09772 0.36108,-0.271937 -0.0443,-0.502394 -0.2472,-0.30825 -0.2039,-0.583534 0.91474,0.06563 0.87401,-0.0031 0.14994,0.161174 -0.29422,0.283637 -0.0806,0.31561 0.73255,0.389211 0.71045,0.408036 0.01,0.16788 -0.1507,0.161543 -0.70785,0.04709 -0.51182,0.1536 0.30956,0.248387 -0.48316,0.03426 -0.43852,-0.07134 -0.19271,0.110257 -0.45073,-0.01259 -0.71654,0.1206 -0.17873,-0.501953 -0.68724,0.123601 -0.8132,0.02134 -0.13735,0.366074 -0.2946,-0.05423 -0.41912,0.32708 -0.21115,0.129454 -0.41542,0.662754 -0.38682,0.78907 -0.45664,0.285915 -0.6169,1.220185 -1.03186,1.730285 -0.0428,0.157204 0.091,0.299146 -0.12471,0.455632 -0.32971,0.875338 -0.63595,1.868598 -1.03192,2.774012 -0.397855,0.993832 -0.725907,2.081793 -0.960795,3.132046 0.118571,0.08896 -0.370571,1.004593 -0.386341,1.665195 0.0027,0.32138 -0.214838,1.45714 -0.198609,0.630184 -0.202176,0.560404 -0.01747,0.794736 0.1829,0.589674 0.169756,-0.283113 0.07422,-1.072078 0.30667,-1.397223 0.116349,-0.07768 0.336883,-0.791843 0.14699,-0.4533 -0.287606,0.326772 0.171187,-0.705839 0.19815,-0.810705 0.153766,-0.528178 0.823735,-0.978213 0.607945,-1.536015 0.17977,0.312049 0.33071,0.08509 0.386,-0.427506 0.33835,-0.619164 0.0751,-1.439545 0.60562,-2.045459 0.52668,-0.561885 0.49031,-0.183063 0.20095,0.344684 -0.27287,0.413132 -0.51605,1.18663 -0.59227,1.661826 -0.10664,0.169651 -0.33494,0.853505 -0.30883,1.255274 -0.36378,0.321026 -0.727577,0.93476 -0.646645,1.32452 -0.05923,0.598596 -0.522065,1.398151 -0.571664,2.124927 9.26e-4,0.253986 -0.1584,0.194645 -0.13876,0.78141 -0.269274,0.749186 -0.231214,1.406859 -0.49103,1.986088 -0.140613,0.790525 -0.347005,1.340018 -0.40742,2.113326 -0.22506,1.263654 -0.09602,2.666188 -0.25427,3.882743 -0.236019,0.472221 -0.215499,1.476542 -0.27439,1.716549 -0.170944,-0.159276 0.15428,0.774363 0.0576,1.097705 0.06929,0.671643 0.113515,1.223976 0.34412,1.849356 0.340279,0.438152 0.535818,0.746989 0.944172,1.014357 0.134564,0.05323 0.381002,0.319161 0.63749,0.43478 -0.662915,0.345024 1.376187,0.405506 1.465367,0.341473 z m 9.23003,-9.22862 c 0.22676,-0.239998 -0.15159,-0.269164 0.35016,-0.47843 0.29721,-0.05039 0.7202,-0.475013 1.015,-0.45552 0.28181,-0.230297 0.26861,-0.27387 0.81127,-0.517701 0.44931,0.143107 -0.81505,0.575364 -0.17322,0.613212 0.25702,-0.387309 0.7985,-0.06166 0.75749,-0.47386 0.31466,0.213242 0.52334,-0.411076 0.91151,-0.09828 0.52699,-0.10381 1.43662,-0.199154 1.73812,-0.31942 -0.37693,-0.161812 0.0581,-0.276221 0.26673,-0.06477 -0.18975,0.200936 0.88397,-0.01314 1.23606,5.6e-4 1.13979,-0.123474 2.23601,-0.209491 3.1804,-0.44575 -0.54683,-0.169442 -0.22035,-0.19832 0.38328,-0.28207 0.55853,-0.05982 0.64179,-0.03193 1.14298,-0.1329 0.22537,0.168327 0.47786,-0.659293 0.90836,-0.21063 0.77312,0.435519 0.2296,-0.278751 0.48218,-0.59103 0.0363,-0.194369 0.3635,0.309309 0.25517,-0.21037 -0.0729,-0.866934 -1.15661,-0.282874 -1.68654,-0.699956 -0.30383,0.05975 -0.74937,-0.17589 -0.88662,0.13469 -0.64093,-0.133915 -1.38823,-0.0533 -1.7823,0.06872 -0.74354,-0.100009 -1.12721,0.246658 -1.79574,0.11408 -0.43818,-0.154325 -0.51826,0.28161 -0.89924,0.17361 -0.16971,0.154234 -0.69863,0.379546 -0.83762,0.25838 -0.12825,0.351347 -0.5677,0.197241 -0.67162,0.49565 -0.36866,0.319146 -0.35412,0.237148 -0.71424,0.09019 0.19539,0.388129 -0.2992,0.512116 -0.13437,0.60849 -0.39104,0.119293 -0.76894,0.418111 -1.20227,0.43385 -0.008,0.385878 -1.22827,0.524569 -0.77117,0.08207 0.38749,-0.261316 0.38394,-0.56778 0.7484,-0.64592 0.35905,-0.24426 0.21991,-0.5343 0.87259,-0.507803 0.20652,-0.05933 0.41761,-0.05536 0.64131,-0.154897 0.34785,-0.339791 -0.49391,-0.140155 0.0177,-0.31253 0.56467,-0.347802 0.28339,-0.488479 -0.19868,-0.5418 -0.29193,0.607356 -0.3323,0.04859 -0.67982,0.372056 -0.48033,0.238155 -0.9196,0.562064 -1.46797,0.83494 0.078,0.359895 -0.46657,0.01131 -0.36684,0.33886 -0.45278,0.312925 0.13462,0.426802 0.31923,0.0514 0.30949,-0.442687 0.88442,-0.799539 1.43151,-0.858353 -0.44779,0.286211 -0.46899,0.244539 -0.84425,0.47912 0.57701,0.04967 0.15554,0.194946 -0.31806,0.46731 -0.44385,0.184905 -0.89978,0.794556 -1.29007,0.897596 -0.29259,-0.02998 -0.36543,0.526985 -0.73318,0.67994 0.41886,0.356472 -0.59736,0.516052 -0.0156,0.807261 z m -12.38433,-1.872973 c 0.201283,-0.501587 0.134946,-1.210797 0.42619,-1.556722 0.08694,-0.824326 0.551183,-1.702781 0.42077,-2.460623 -0.243624,0.01539 0.14307,0.593958 -0.19592,0.40532 0.100606,-1.039524 -0.291806,0.612101 -0.0615,0.1977 0.16788,-0.100865 -0.114863,0.452266 -0.19016,0.3352 -0.169741,0.512926 0.127344,1.126589 -0.18338,1.523529 0.07283,0.0531 -0.266125,0.674651 -0.24578,1.057567 0.01285,0.0503 -0.07176,0.748078 0.02978,0.498029 z m 19.621,-8.954134 c 0.16046,-0.308488 0.78395,0.01653 0.96388,0.0038 0.32175,-0.38005 0.009,-0.177822 -7e-4,-0.2641 -0.19396,-0.07685 -0.5704,-0.246029 -0.96503,-0.502973 -0.22707,-0.224961 -0.6919,-0.301228 -0.74729,-0.30877 -0.28878,-0.223753 -0.8491,-0.348415 -1.29944,-0.59738 -0.43286,-0.327329 -0.98982,-0.254631 -1.55818,-0.45672 -0.15428,-0.137307 -1.3186,-0.403306 -0.87135,-0.20984 0.68253,0.362361 1.445,0.498953 1.95683,0.90222 0.0143,0.265869 0.45076,0.09368 0.71024,0.31096 -0.85781,10e-4 0.75771,0.141277 0.31551,0.41542 0.50909,-0.04497 0.2444,0.05448 0.74319,0.23089 0.0544,0.331204 -0.21008,0.392384 0.45332,0.43727 0.0897,-0.05899 0.21473,0.205669 0.29902,0.03927 z m 11.92382,-1.181645 c -0.16578,-0.448031 -0.0153,-0.07805 -0.4677,-0.172056 -0.31784,0.126747 -0.58753,-0.521111 -0.864,-0.49555 -0.41313,-0.630102 -1.0851,-1.29632 -1.34067,-1.990136 -0.22002,-0.139219 0.0594,-0.560616 0.3446,-0.65006 0.0962,-0.352106 0.47579,-0.457779 0.5567,-0.38871 0.58522,-0.507463 0.95086,-1.147984 1.29035,-1.735888 0.45118,-0.425024 -0.1729,-0.228249 0.3672,-0.591301 0.1075,-0.349743 0.28575,-0.233301 0.3563,-0.621056 0.12791,0.36351 0.17349,-0.05272 0.36401,-0.223983 0.13511,0.04002 0.22015,-0.388583 0.65645,-0.447801 0.20161,-0.382535 0.36471,0.11044 0.59441,-0.29937 0.22412,-0.161099 0.57786,-0.113997 0.63492,-0.295178 0.18173,-0.05286 0.43616,-0.282307 0.484,-0.153127 0.3609,-0.264115 0.0822,0.35258 0.0356,0.21434 -0.34832,0.007 -0.31597,0.563714 -0.1432,0.24336 0.14345,-0.160668 0.0183,0.407901 -0.2042,0.45246 0.005,0.327979 0.44713,0.700481 -0.15713,0.93838 -0.33319,0.123541 -0.42098,0.600239 -0.576,0.9378 -0.26826,0.467893 -0.48902,1.180343 -0.65859,1.651025 -0.24222,0.127518 0.18404,-0.965324 -0.1572,-0.458327 -0.0184,1.300149 -0.14601,0.05292 -0.26204,1.026019 0.0756,0.730228 -0.48326,1.339344 -0.28901,2.065512 -0.34248,0.407373 -0.50109,0.628331 -0.5115,1.04944 -0.0421,0.02431 -0.0245,-0.06258 -0.0533,-0.05579 z m -5.89236,-4.665436 c -0.23463,-0.598865 -1.10988,-0.366602 -1.25253,-1.034725 -0.57442,-0.630243 -1.04106,-1.324171 -1.53775,-2.12694 -0.13067,-0.426806 -0.46771,-0.804354 -0.014,-0.990504 0.32298,-0.212388 0.78954,-0.518062 1.09522,-0.936076 0.50767,-0.350483 1.02249,-1.116613 1.59883,-1.281572 0.17617,-0.175543 0.64935,-0.474413 0.73059,-0.6413 0.28724,-0.105069 0.66681,-0.624987 0.92169,-0.6902 0.1101,-0.06889 0.67969,-0.740547 0.41153,-0.27066 0.5123,-0.248941 -0.11008,-0.247012 0.4024,-0.50654 0.19077,0.247012 0.14734,0.03947 0.3752,-0.18078 0.417,-0.43158 0.99184,-0.689733 1.4688,-0.98179 0.39268,-0.325887 0.5473,-0.367743 0.99257,-0.51252 0.13648,-0.301475 0.77448,-0.188867 0.86866,-0.304287 0.51615,-0.211285 0.86059,0.186671 1.25315,-0.20502 0.10142,0.271556 0.32883,0.464084 -0.003,0.657917 -0.35269,0.424103 -1.23694,0.264525 -1.72243,0.266318 -0.19876,-0.152347 -0.82697,0.49011 -0.6061,0.04297 -0.39416,0.162597 -0.72449,0.498052 -0.927,0.47055 -0.066,0.421146 -0.35981,0.224093 -0.5778,0.486055 0.2521,0.253998 -0.68845,0.545425 -0.5335,0.83664 0.38982,0.0035 -0.10872,0.0061 -0.2917,0.4476 -0.0114,0.21432 -0.40979,0.327499 -0.3114,0.831934 0.15595,0.356866 -0.44033,0.681455 -0.2138,1.052251 0.068,-0.05051 0.0467,0.253697 0.2035,0.32162 -0.0495,0.24026 -0.0196,0.345154 -0.2146,0.72365 -0.3532,-0.160855 -0.0106,0.341929 0.009,0.34379 -0.13417,0.499643 0.31226,0.729269 -0.1376,1.023064 0.146,0.685373 0.22882,1.486844 -0.2587,2.130521 -0.31429,0.436527 -0.85986,0.837181 -1.32552,1.018699 0.0417,0.0984 -0.42721,0.186352 -0.40408,0.0093 z m -6.70245,-4.704976 c -0.45905,0.08414 -0.48021,-0.771597 -0.92198,-0.46445 0.0336,-0.542566 -0.27801,0.0094 -0.55532,-0.340792 -0.27688,-0.630088 -0.3109,-0.03943 -0.64099,-0.56442 -0.37117,-0.553593 -1.11202,-1.053462 -1.23602,-1.800875 -0.42795,-0.148452 -0.52426,-1.16941 -0.34525,-1.36692 0.65141,0.517993 0.96856,-0.727832 1.47961,-1.0264 0.8027,-1.153217 1.97729,-1.761793 3.10666,-2.538275 0.81197,-0.360642 1.69535,-0.925882 2.51623,-1.140039 0.24443,-0.186584 0.81023,-0.194579 1.20572,-0.5 0.15194,0.03768 0.41414,-0.134693 0.69525,-0.23255 0.18323,-0.443076 0.67205,-0.342 0.83749,-0.263019 0.32182,-0.164159 -0.32927,0.296108 -0.0852,0.2806 -0.18151,0.258774 -0.40844,0.75134 -0.24792,0.8134 -0.17562,0.277126 -0.3842,0.467005 -0.34175,0.72011 -0.34847,0.185799 0.31723,0.09985 -0.17602,0.24217 -0.32382,0.327371 -0.17164,0.277037 0.0153,0.18361 -0.082,0.181346 -0.71934,0.563199 -0.66976,0.68092 -0.22222,0.390777 0.43793,-0.210181 0.67522,-0.08788 -0.21817,0.431885 -0.56262,0.789068 -1.10431,1.11398 0.33891,0.382781 -0.25718,0.0209 -0.24707,0.112613 -0.0731,-0.280009 -0.44939,0.206673 -0.70809,0.09969 0.42309,-0.194603 -0.43307,0.08957 -0.53235,0.17073 -0.77768,0.05275 -1.29048,0.490219 -1.08204,1.236331 -0.23487,0.876621 -0.2074,1.744467 -0.49967,2.518051 -0.14642,0.475777 0.26477,0.625096 0.55162,0.32303 0.0142,0.647873 -0.96021,0.849197 -1.26341,1.34658 -0.37668,-0.372872 -0.15728,0.821965 -0.42592,0.483805 z m -8.20308,-4.404516 c -0.5488,0.102835 -0.32961,-0.496024 -1.04032,-0.471354 -0.36786,-0.435329 -0.53011,-0.04455 -0.70111,-0.724491 -0.44685,-0.533059 -0.9684,-0.926952 -1.2636,-1.496758 -0.27444,-0.330446 -0.4064,-0.442088 0.0379,-0.520488 0.40744,0.131075 1.16391,0.0025 1.44998,-0.565087 0.79991,-0.570702 1.29815,-1.016385 2.15531,-1.465594 0.63996,-0.273478 1.4026,-0.751692 2.01499,-1.327999 0.79081,-0.328998 1.43345,-1.0026509 2.26567,-1.4747579 0.26723,0.265073 0.0611,-0.290619 0.49731,-0.207722 0.11123,-0.364251 0.69971,-0.88704 0.56531,-0.06701 0.0847,0.321661 -0.23101,0.08579 -0.2981,0.06599 0.18061,-0.573024 -0.0221,0.09608 -0.29535,0.194734 -0.23274,0.171536 -0.23341,0.766773 -0.40215,0.456225 -0.35075,0.5378449 -0.14772,0.03673 -0.24395,0.113908 0.0834,-0.640529 -0.28655,0.06694 -0.23843,0.224504 0.22687,0.3201129 -0.70446,0.6884929 -0.0268,-0.01993 -0.20925,0.124036 -0.49949,0.1478219 -0.55995,0.5056869 -0.16753,-0.251574 -0.17165,0.556672 -0.49868,0.49454 -0.25296,-0.0168 -0.39973,0.553884 -0.54736,0.443593 -0.20395,0.452548 -0.40296,0.642115 -0.6019,0.871073 -0.26537,0.177323 -0.10052,0.782784 -0.40521,1.139856 -0.0459,0.470438 -0.2712,0.728103 -0.16699,1.010432 -0.13508,0.545189 0.0792,1.002489 -0.10431,1.481372 -0.0246,0.593718 -0.87975,0.376895 -0.94821,0.957186 -0.26544,-0.05784 -0.36317,0.712245 -0.64398,0.382089 z"
       id="path359-6" /></g></svg>
